<?xml version="1.0" encoding="UTF-8"?>
<!DOCTYPE svg PUBLIC "-//W3C//DTD SVG 1.1//EN" "http://www.w3.org/Graphics/SVG/1.1/DTD/svg11.dtd">
<svg version="1.2" width="37.8mm" height="52.05mm" viewBox="5659 14337 3780 5205" preserveAspectRatio="xMidYMid" fill-rule="evenodd" stroke-width="28.222" stroke-linejoin="round" xmlns="http://www.w3.org/2000/svg" xmlns:ooo="http://xml.openoffice.org/svg/export" xmlns:xlink="http://www.w3.org/1999/xlink" xmlns:presentation="http://sun.com/xmlns/staroffice/presentation" xmlns:smil="http://www.w3.org/2001/SMIL20/" xmlns:anim="urn:oasis:names:tc:opendocument:xmlns:animation:1.0" xmlns:svg="urn:oasis:names:tc:opendocument:xmlns:svg-compatible:1.0" xml:space="preserve">
 <defs class="EmbeddedBulletChars">
  <g id="bullet-char-template-57356" transform="scale(0.00048828125,-0.00048828125)">
   <path d="M 580,1141 L 1163,571 580,0 -4,571 580,1141 Z"/>
  </g>
  <g id="bullet-char-template-57354" transform="scale(0.00048828125,-0.00048828125)">
   <path d="M 8,1128 L 1137,1128 1137,0 8,0 8,1128 Z"/>
  </g>
  <g id="bullet-char-template-10146" transform="scale(0.00048828125,-0.00048828125)">
   <path d="M 174,0 L 602,739 174,1481 1456,739 174,0 Z M 1358,739 L 309,1346 659,739 1358,739 Z"/>
  </g>
  <g id="bullet-char-template-10132" transform="scale(0.00048828125,-0.00048828125)">
   <path d="M 2015,739 L 1276,0 717,0 1260,543 174,543 174,936 1260,936 717,1481 1274,1481 2015,739 Z"/>
  </g>
  <g id="bullet-char-template-10007" transform="scale(0.00048828125,-0.00048828125)">
   <path d="M 0,-2 C -7,14 -16,27 -25,37 L 356,567 C 262,823 215,952 215,954 215,979 228,992 255,992 264,992 276,990 289,987 310,991 331,999 354,1012 L 381,999 492,748 772,1049 836,1024 860,1049 C 881,1039 901,1025 922,1006 886,937 835,863 770,784 769,783 710,716 594,584 L 774,223 C 774,196 753,168 711,139 L 727,119 C 717,90 699,76 672,76 641,76 570,178 457,381 L 164,-76 C 142,-110 111,-127 72,-127 30,-127 9,-110 8,-76 1,-67 -2,-52 -2,-32 -2,-23 -1,-13 0,-2 Z"/>
  </g>
  <g id="bullet-char-template-10004" transform="scale(0.00048828125,-0.00048828125)">
   <path d="M 285,-33 C 182,-33 111,30 74,156 52,228 41,333 41,471 41,549 55,616 82,672 116,743 169,778 240,778 293,778 328,747 346,684 L 369,508 C 377,444 397,411 428,410 L 1163,1116 C 1174,1127 1196,1133 1229,1133 1271,1133 1292,1118 1292,1087 L 1292,965 C 1292,929 1282,901 1262,881 L 442,47 C 390,-6 338,-33 285,-33 Z"/>
  </g>
  <g id="bullet-char-template-9679" transform="scale(0.00048828125,-0.00048828125)">
   <path d="M 813,0 C 632,0 489,54 383,161 276,268 223,411 223,592 223,773 276,916 383,1023 489,1130 632,1184 813,1184 992,1184 1136,1130 1245,1023 1353,916 1407,772 1407,592 1407,412 1353,268 1245,161 1136,54 992,0 813,0 Z"/>
  </g>
  <g id="bullet-char-template-8226" transform="scale(0.00048828125,-0.00048828125)">
   <path d="M 346,457 C 273,457 209,483 155,535 101,586 74,649 74,723 74,796 101,859 155,911 209,963 273,989 346,989 419,989 480,963 531,910 582,859 608,796 608,723 608,648 583,586 532,535 482,483 420,457 346,457 Z"/>
  </g>
  <g id="bullet-char-template-8211" transform="scale(0.00048828125,-0.00048828125)">
   <path d="M -4,459 L 1135,459 1135,606 -4,606 -4,459 Z"/>
  </g>
  <g id="bullet-char-template-61548" transform="scale(0.00048828125,-0.00048828125)">
   <path d="M 173,740 C 173,903 231,1043 346,1159 462,1274 601,1332 765,1332 928,1332 1067,1274 1183,1159 1299,1043 1357,903 1357,740 1357,577 1299,437 1183,322 1067,206 928,148 765,148 601,148 462,206 346,322 231,437 173,577 173,740 Z"/>
  </g>
 </defs>
 <g class="Page">
  <g class="com.sun.star.drawing.OpenBezierShape">
   <g id="id3">
    <rect class="BoundingBox" stroke="none" fill="none" x="5659" y="14337" width="3780" height="5205"/>
    <path fill="none" stroke="rgb(0,0,0)" stroke-width="212" stroke-linejoin="round" d="M 5997,14897 C 6242,17276 8070,18491 9001,19173 "/>
    <path fill="rgb(0,0,0)" stroke="none" d="M 5953,14926 L 5907,14914 5859,14892 5816,14860 5782,14818 5757,14772 5743,14726 5736,14678 5740,14632 5752,14583 5774,14536 5806,14494 5848,14460 5894,14436 5940,14419 5988,14414 6034,14416 6083,14431 6129,14452 6172,14484 6206,14524 6231,14570 6245,14618 6252,14664 6248,14713 6236,14759 6214,14807 6182,14850 6140,14884 6096,14909 6048,14923 6002,14930 5953,14926 Z "/>
    <path fill="rgb(0,0,0)" stroke="none" d="M 8991,19107 L 9027,19075 9072,19048 9122,19030 9176,19024 9228,19030 9274,19043 9318,19064 9354,19094 9388,19131 9415,19175 9432,19225 9437,19278 9432,19330 9420,19378 9397,19421 9369,19458 9330,19491 9287,19516 9237,19535 9185,19541 9133,19536 9085,19521 9042,19501 9005,19470 8972,19434 8945,19390 8927,19339 8922,19286 8926,19235 8941,19187 8960,19145 8991,19107 Z "/>
    <path fill="none" stroke="rgb(0,255,0)" stroke-width="212" stroke-linejoin="round" d="M 5921,14821 C 6166,17200 7994,18415 8925,19097 "/>
    <path fill="rgb(0,255,0)" stroke="none" d="M 5877,14850 L 5831,14838 5783,14816 5740,14784 5706,14742 5681,14696 5667,14650 5660,14602 5664,14556 5676,14507 5698,14460 5730,14418 5772,14384 5818,14360 5864,14343 5912,14338 5958,14340 6007,14355 6053,14376 6096,14408 6130,14448 6155,14494 6169,14542 6176,14588 6172,14637 6160,14683 6138,14731 6106,14774 6064,14808 6020,14833 5972,14847 5926,14854 5877,14850 Z "/>
    <path fill="rgb(0,255,0)" stroke="none" d="M 8915,19031 L 8951,18999 8996,18972 9046,18954 9100,18948 9152,18954 9198,18967 9242,18988 9278,19018 9312,19055 9339,19099 9356,19149 9361,19202 9356,19254 9344,19302 9321,19345 9293,19382 9254,19415 9211,19440 9161,19459 9109,19465 9057,19460 9009,19445 8966,19425 8929,19394 8896,19358 8869,19314 8851,19263 8846,19210 8850,19159 8865,19111 8884,19069 8915,19031 Z "/>
   </g>
  </g>
 </g>
</svg>