<?xml version="1.0" encoding="UTF-8"?>
<!DOCTYPE svg PUBLIC "-//W3C//DTD SVG 1.1//EN" "http://www.w3.org/Graphics/SVG/1.1/DTD/svg11.dtd">
<svg version="1.2" width="37.57mm" height="43.92mm" viewBox="5654 3979 3757 4392" preserveAspectRatio="xMidYMid" fill-rule="evenodd" stroke-width="28.222" stroke-linejoin="round" xmlns="http://www.w3.org/2000/svg" xmlns:ooo="http://xml.openoffice.org/svg/export" xmlns:xlink="http://www.w3.org/1999/xlink" xmlns:presentation="http://sun.com/xmlns/staroffice/presentation" xmlns:smil="http://www.w3.org/2001/SMIL20/" xmlns:anim="urn:oasis:names:tc:opendocument:xmlns:animation:1.0" xmlns:svg="urn:oasis:names:tc:opendocument:xmlns:svg-compatible:1.0" xml:space="preserve">
 <defs class="EmbeddedBulletChars">
  <g id="bullet-char-template-57356" transform="scale(0.00048828125,-0.00048828125)">
   <path d="M 580,1141 L 1163,571 580,0 -4,571 580,1141 Z"/>
  </g>
  <g id="bullet-char-template-57354" transform="scale(0.00048828125,-0.00048828125)">
   <path d="M 8,1128 L 1137,1128 1137,0 8,0 8,1128 Z"/>
  </g>
  <g id="bullet-char-template-10146" transform="scale(0.00048828125,-0.00048828125)">
   <path d="M 174,0 L 602,739 174,1481 1456,739 174,0 Z M 1358,739 L 309,1346 659,739 1358,739 Z"/>
  </g>
  <g id="bullet-char-template-10132" transform="scale(0.00048828125,-0.00048828125)">
   <path d="M 2015,739 L 1276,0 717,0 1260,543 174,543 174,936 1260,936 717,1481 1274,1481 2015,739 Z"/>
  </g>
  <g id="bullet-char-template-10007" transform="scale(0.00048828125,-0.00048828125)">
   <path d="M 0,-2 C -7,14 -16,27 -25,37 L 356,567 C 262,823 215,952 215,954 215,979 228,992 255,992 264,992 276,990 289,987 310,991 331,999 354,1012 L 381,999 492,748 772,1049 836,1024 860,1049 C 881,1039 901,1025 922,1006 886,937 835,863 770,784 769,783 710,716 594,584 L 774,223 C 774,196 753,168 711,139 L 727,119 C 717,90 699,76 672,76 641,76 570,178 457,381 L 164,-76 C 142,-110 111,-127 72,-127 30,-127 9,-110 8,-76 1,-67 -2,-52 -2,-32 -2,-23 -1,-13 0,-2 Z"/>
  </g>
  <g id="bullet-char-template-10004" transform="scale(0.00048828125,-0.00048828125)">
   <path d="M 285,-33 C 182,-33 111,30 74,156 52,228 41,333 41,471 41,549 55,616 82,672 116,743 169,778 240,778 293,778 328,747 346,684 L 369,508 C 377,444 397,411 428,410 L 1163,1116 C 1174,1127 1196,1133 1229,1133 1271,1133 1292,1118 1292,1087 L 1292,965 C 1292,929 1282,901 1262,881 L 442,47 C 390,-6 338,-33 285,-33 Z"/>
  </g>
  <g id="bullet-char-template-9679" transform="scale(0.00048828125,-0.00048828125)">
   <path d="M 813,0 C 632,0 489,54 383,161 276,268 223,411 223,592 223,773 276,916 383,1023 489,1130 632,1184 813,1184 992,1184 1136,1130 1245,1023 1353,916 1407,772 1407,592 1407,412 1353,268 1245,161 1136,54 992,0 813,0 Z"/>
  </g>
  <g id="bullet-char-template-8226" transform="scale(0.00048828125,-0.00048828125)">
   <path d="M 346,457 C 273,457 209,483 155,535 101,586 74,649 74,723 74,796 101,859 155,911 209,963 273,989 346,989 419,989 480,963 531,910 582,859 608,796 608,723 608,648 583,586 532,535 482,483 420,457 346,457 Z"/>
  </g>
  <g id="bullet-char-template-8211" transform="scale(0.00048828125,-0.00048828125)">
   <path d="M -4,459 L 1135,459 1135,606 -4,606 -4,459 Z"/>
  </g>
  <g id="bullet-char-template-61548" transform="scale(0.00048828125,-0.00048828125)">
   <path d="M 173,740 C 173,903 231,1043 346,1159 462,1274 601,1332 765,1332 928,1332 1067,1274 1183,1159 1299,1043 1357,903 1357,740 1357,577 1299,437 1183,322 1067,206 928,148 765,148 601,148 462,206 346,322 231,437 173,577 173,740 Z"/>
  </g>
 </defs>
 <g class="Page">
  <g class="com.sun.star.drawing.OpenBezierShape">
   <g id="id3">
    <rect class="BoundingBox" stroke="none" fill="none" x="5654" y="3979" width="3757" height="4392"/>
    <path fill="none" stroke="rgb(0,0,0)" stroke-width="212" stroke-linejoin="round" d="M 5975,7889 C 6204,6203 8002,5074 8973,4414 "/>
    <path fill="rgb(0,0,0)" stroke="none" d="M 6027,7857 L 6074,7869 6122,7890 6165,7922 6200,7963 6225,8009 6240,8055 6247,8103 6243,8149 6231,8198 6210,8246 6178,8288 6137,8322 6091,8346 6045,8364 5997,8369 5951,8367 5902,8353 5856,8332 5812,8301 5778,8261 5753,8215 5738,8167 5731,8121 5735,8073 5746,8026 5768,7978 5799,7935 5841,7900 5885,7875 5933,7860 5979,7853 6027,7857 Z "/>
    <path fill="rgb(0,0,0)" stroke="none" d="M 8909,4398 L 8898,4351 8895,4299 8902,4246 8922,4196 8951,4153 8985,4118 9024,4089 9067,4071 9116,4058 9168,4055 9219,4064 9269,4084 9312,4113 9349,4146 9377,4186 9396,4228 9407,4278 9409,4328 9402,4381 9383,4430 9354,4474 9319,4509 9281,4538 9237,4556 9189,4568 9137,4571 9084,4564 9034,4543 8992,4516 8956,4480 8928,4443 8909,4398 Z "/>
    <path fill="none" stroke="rgb(255,0,0)" stroke-width="212" stroke-linejoin="round" d="M 5899,7813 C 6128,6127 7926,4998 8897,4338 "/>
    <path fill="rgb(255,0,0)" stroke="none" d="M 5951,7781 L 5998,7793 6046,7814 6089,7846 6124,7887 6149,7933 6164,7979 6171,8027 6167,8073 6155,8122 6134,8170 6102,8212 6061,8246 6015,8270 5969,8288 5921,8293 5875,8291 5826,8277 5780,8256 5736,8225 5702,8185 5677,8139 5662,8091 5655,8045 5659,7997 5670,7950 5692,7902 5723,7859 5765,7824 5809,7799 5857,7784 5903,7777 5951,7781 Z "/>
    <path fill="rgb(255,0,0)" stroke="none" d="M 8833,4322 L 8822,4275 8819,4223 8826,4170 8846,4120 8875,4077 8909,4042 8948,4013 8991,3995 9040,3982 9092,3979 9143,3988 9193,4008 9236,4037 9273,4070 9301,4110 9320,4152 9331,4202 9333,4252 9326,4305 9307,4354 9278,4398 9243,4433 9205,4462 9161,4480 9113,4492 9061,4495 9008,4488 8958,4467 8916,4440 8880,4404 8852,4367 8833,4322 Z "/>
   </g>
  </g>
 </g>
</svg>