<?xml version="1.0" encoding="UTF-8"?>
<!DOCTYPE svg PUBLIC "-//W3C//DTD SVG 1.1//EN" "http://www.w3.org/Graphics/SVG/1.1/DTD/svg11.dtd">
<svg version="1.2" width="14.62mm" height="17.95mm" viewBox="11478 11132 1462 1795" preserveAspectRatio="xMidYMid" fill-rule="evenodd" stroke-width="28.222" stroke-linejoin="round" xmlns="http://www.w3.org/2000/svg" xmlns:ooo="http://xml.openoffice.org/svg/export" xmlns:xlink="http://www.w3.org/1999/xlink" xmlns:presentation="http://sun.com/xmlns/staroffice/presentation" xmlns:smil="http://www.w3.org/2001/SMIL20/" xmlns:anim="urn:oasis:names:tc:opendocument:xmlns:animation:1.0" xmlns:svg="urn:oasis:names:tc:opendocument:xmlns:svg-compatible:1.0" xml:space="preserve">
 <defs class="EmbeddedBulletChars">
  <g id="bullet-char-template-57356" transform="scale(0.00048828125,-0.00048828125)">
   <path d="M 580,1141 L 1163,571 580,0 -4,571 580,1141 Z"/>
  </g>
  <g id="bullet-char-template-57354" transform="scale(0.00048828125,-0.00048828125)">
   <path d="M 8,1128 L 1137,1128 1137,0 8,0 8,1128 Z"/>
  </g>
  <g id="bullet-char-template-10146" transform="scale(0.00048828125,-0.00048828125)">
   <path d="M 174,0 L 602,739 174,1481 1456,739 174,0 Z M 1358,739 L 309,1346 659,739 1358,739 Z"/>
  </g>
  <g id="bullet-char-template-10132" transform="scale(0.00048828125,-0.00048828125)">
   <path d="M 2015,739 L 1276,0 717,0 1260,543 174,543 174,936 1260,936 717,1481 1274,1481 2015,739 Z"/>
  </g>
  <g id="bullet-char-template-10007" transform="scale(0.00048828125,-0.00048828125)">
   <path d="M 0,-2 C -7,14 -16,27 -25,37 L 356,567 C 262,823 215,952 215,954 215,979 228,992 255,992 264,992 276,990 289,987 310,991 331,999 354,1012 L 381,999 492,748 772,1049 836,1024 860,1049 C 881,1039 901,1025 922,1006 886,937 835,863 770,784 769,783 710,716 594,584 L 774,223 C 774,196 753,168 711,139 L 727,119 C 717,90 699,76 672,76 641,76 570,178 457,381 L 164,-76 C 142,-110 111,-127 72,-127 30,-127 9,-110 8,-76 1,-67 -2,-52 -2,-32 -2,-23 -1,-13 0,-2 Z"/>
  </g>
  <g id="bullet-char-template-10004" transform="scale(0.00048828125,-0.00048828125)">
   <path d="M 285,-33 C 182,-33 111,30 74,156 52,228 41,333 41,471 41,549 55,616 82,672 116,743 169,778 240,778 293,778 328,747 346,684 L 369,508 C 377,444 397,411 428,410 L 1163,1116 C 1174,1127 1196,1133 1229,1133 1271,1133 1292,1118 1292,1087 L 1292,965 C 1292,929 1282,901 1262,881 L 442,47 C 390,-6 338,-33 285,-33 Z"/>
  </g>
  <g id="bullet-char-template-9679" transform="scale(0.00048828125,-0.00048828125)">
   <path d="M 813,0 C 632,0 489,54 383,161 276,268 223,411 223,592 223,773 276,916 383,1023 489,1130 632,1184 813,1184 992,1184 1136,1130 1245,1023 1353,916 1407,772 1407,592 1407,412 1353,268 1245,161 1136,54 992,0 813,0 Z"/>
  </g>
  <g id="bullet-char-template-8226" transform="scale(0.00048828125,-0.00048828125)">
   <path d="M 346,457 C 273,457 209,483 155,535 101,586 74,649 74,723 74,796 101,859 155,911 209,963 273,989 346,989 419,989 480,963 531,910 582,859 608,796 608,723 608,648 583,586 532,535 482,483 420,457 346,457 Z"/>
  </g>
  <g id="bullet-char-template-8211" transform="scale(0.00048828125,-0.00048828125)">
   <path d="M -4,459 L 1135,459 1135,606 -4,606 -4,459 Z"/>
  </g>
  <g id="bullet-char-template-61548" transform="scale(0.00048828125,-0.00048828125)">
   <path d="M 173,740 C 173,903 231,1043 346,1159 462,1274 601,1332 765,1332 928,1332 1067,1274 1183,1159 1299,1043 1357,903 1357,740 1357,577 1299,437 1183,322 1067,206 928,148 765,148 601,148 462,206 346,322 231,437 173,577 173,740 Z"/>
  </g>
 </defs>
 <g class="Page">
  <g class="Group">
   <g class="com.sun.star.drawing.CustomShape">
    <g id="id3">
     <rect class="BoundingBox" stroke="none" fill="none" x="11645" y="11132" width="1174" height="327"/>
     <path fill="rgb(114,159,207)" stroke="none" d="M 11700,11133 L 11700,11133 C 11691,11133 11681,11135 11673,11140 11665,11145 11658,11152 11653,11160 11648,11168 11646,11178 11646,11187 L 11646,11403 11646,11403 C 11646,11412 11648,11422 11653,11430 11658,11438 11665,11445 11673,11450 11681,11455 11691,11457 11700,11457 L 12763,11457 12763,11457 C 12772,11457 12782,11455 12790,11450 12798,11445 12805,11438 12810,11430 12815,11422 12817,11412 12817,11403 L 12817,11187 12817,11187 12817,11187 C 12817,11178 12815,11168 12810,11160 12805,11152 12798,11145 12790,11140 12782,11135 12772,11133 12763,11133 L 11700,11133 Z "/>
     <path fill="none" stroke="rgb(52,101,164)" d="M 11700,11133 L 11700,11133 C 11691,11133 11681,11135 11673,11140 11665,11145 11658,11152 11653,11160 11648,11168 11646,11178 11646,11187 L 11646,11403 11646,11403 C 11646,11412 11648,11422 11653,11430 11658,11438 11665,11445 11673,11450 11681,11455 11691,11457 11700,11457 L 12763,11457 12763,11457 C 12772,11457 12782,11455 12790,11450 12798,11445 12805,11438 12810,11430 12815,11422 12817,11412 12817,11403 L 12817,11187 12817,11187 12817,11187 C 12817,11178 12815,11168 12810,11160 12805,11152 12798,11145 12790,11140 12782,11135 12772,11133 12763,11133 L 11700,11133 Z "/>
    </g>
   </g>
   <g class="com.sun.star.drawing.CustomShape">
    <g id="id4">
     <rect class="BoundingBox" stroke="none" fill="none" x="11824" y="11133" width="133" height="325"/>
     <path fill="rgb(165,42,42)" stroke="none" d="M 11846,11133 L 11846,11133 C 11842,11133 11838,11134 11835,11136 11832,11138 11829,11141 11827,11144 11825,11147 11824,11151 11824,11155 L 11824,11434 11824,11435 C 11824,11439 11825,11443 11827,11446 11829,11449 11832,11452 11835,11454 11838,11456 11842,11457 11846,11457 L 11934,11456 11934,11457 C 11938,11457 11942,11456 11945,11454 11948,11452 11951,11449 11953,11446 11955,11443 11956,11439 11956,11435 L 11956,11154 11956,11155 11956,11155 C 11956,11151 11955,11147 11953,11144 11951,11141 11948,11138 11945,11136 11942,11134 11938,11133 11934,11133 L 11846,11133 Z "/>
    </g>
   </g>
   <g class="com.sun.star.drawing.CustomShape">
    <g id="id5">
     <rect class="BoundingBox" stroke="none" fill="none" x="12030" y="11133" width="131" height="325"/>
     <path fill="rgb(0,0,0)" stroke="none" d="M 12051,11133 L 12052,11133 C 12048,11133 12044,11134 12041,11136 12038,11138 12035,11141 12033,11144 12031,11147 12030,11151 12030,11155 L 12030,11435 12030,11435 C 12030,11439 12031,11443 12033,11446 12035,11449 12038,11452 12041,11454 12044,11456 12048,11457 12052,11457 L 12138,11457 12138,11457 C 12142,11457 12146,11456 12149,11454 12152,11452 12155,11449 12157,11446 12159,11443 12160,11439 12160,11435 L 12160,11154 12160,11155 12160,11155 C 12160,11151 12159,11147 12157,11144 12155,11141 12152,11138 12149,11136 12146,11134 12142,11133 12138,11133 L 12051,11133 Z "/>
    </g>
   </g>
   <g class="com.sun.star.drawing.CustomShape">
    <g id="id6">
     <rect class="BoundingBox" stroke="none" fill="none" x="12235" y="11133" width="131" height="325"/>
     <path fill="rgb(165,42,42)" stroke="none" d="M 12256,11133 L 12257,11133 C 12253,11133 12249,11134 12246,11136 12243,11138 12240,11141 12238,11144 12236,11147 12235,11151 12235,11155 L 12235,11435 12235,11435 C 12235,11439 12236,11443 12238,11446 12240,11449 12243,11452 12246,11454 12249,11456 12253,11457 12257,11457 L 12343,11457 12343,11457 C 12347,11457 12351,11456 12354,11454 12357,11452 12360,11449 12362,11446 12364,11443 12365,11439 12365,11435 L 12365,11154 12365,11155 12365,11155 C 12365,11151 12364,11147 12362,11144 12360,11141 12357,11138 12354,11136 12351,11134 12347,11133 12343,11133 L 12256,11133 Z "/>
    </g>
   </g>
   <g class="com.sun.star.drawing.CustomShape">
    <g id="id7">
     <rect class="BoundingBox" stroke="none" fill="none" x="12440" y="11133" width="132" height="325"/>
     <path fill="rgb(255,215,0)" stroke="none" d="M 12505,11133 L 12506,11133 C 12494,11133 12483,11136 12473,11142 12463,11148 12455,11156 12449,11166 12443,11176 12440,11187 12440,11199 L 12440,11391 12440,11392 C 12440,11403 12443,11414 12449,11424 12455,11434 12463,11442 12473,11448 12483,11454 12494,11457 12506,11457 L 12505,11457 12506,11457 C 12517,11457 12528,11454 12538,11448 12548,11442 12556,11434 12562,11424 12568,11414 12571,11403 12571,11392 L 12571,11198 12571,11199 12571,11199 C 12571,11187 12568,11176 12562,11166 12556,11156 12548,11148 12538,11142 12528,11136 12517,11133 12506,11133 L 12505,11133 Z "/>
    </g>
   </g>
   <g class="com.sun.star.drawing.CustomShape">
    <g id="id8">
     <rect class="BoundingBox" stroke="none" fill="none" x="11478" y="11237" width="160" height="1690"/>
     <path fill="rgb(0,0,0)" stroke="none" d="M 11534,11291 L 11534,11291 C 11533,11291 11533,11291 11532,11291 11532,11292 11532,11292 11531,11293 11531,11293 11531,11293 11531,11294 L 11531,12870 11531,12870 C 11531,12871 11531,12871 11531,12872 11532,12872 11532,12872 11532,12873 11533,12873 11533,12873 11534,12873 L 11546,12873 11546,12873 C 11547,12873 11547,12873 11548,12873 11548,12872 11548,12872 11549,12872 11549,12871 11549,12871 11549,12870 L 11549,11294 11549,11294 11549,11294 C 11549,11293 11549,11293 11549,11293 11548,11292 11548,11292 11548,11291 11547,11291 11547,11291 11546,11291 L 11534,11291 Z "/>
     <path fill="none" stroke="rgb(0,0,0)" stroke-width="106" stroke-linejoin="round" d="M 11534,11291 L 11534,11291 C 11533,11291 11533,11291 11532,11291 11532,11292 11532,11292 11531,11293 11531,11293 11531,11293 11531,11294 L 11531,12870 11531,12870 C 11531,12871 11531,12871 11531,12872 11532,12872 11532,12872 11532,12873 11533,12873 11533,12873 11534,12873 L 11546,12873 11546,12873 C 11547,12873 11547,12873 11548,12873 11548,12872 11548,12872 11549,12872 11549,12871 11549,12871 11549,12870 L 11549,11294 11549,11294 11549,11294 C 11549,11293 11549,11293 11549,11293 11548,11292 11548,11292 11548,11291 11547,11291 11547,11291 11546,11291 L 11534,11291 Z "/>
     <path fill="rgb(192,192,192)" stroke="none" d="M 11569,11291 L 11569,11291 C 11568,11291 11568,11291 11567,11291 11567,11292 11567,11292 11566,11293 11566,11293 11566,11293 11566,11294 L 11566,12870 11566,12870 C 11566,12871 11566,12871 11566,12872 11567,12872 11567,12872 11567,12873 11568,12873 11568,12873 11569,12873 L 11581,12873 11581,12873 C 11582,12873 11582,12873 11583,12873 11583,12872 11583,12872 11584,12872 11584,12871 11584,12871 11584,12870 L 11584,11294 11584,11294 11584,11294 C 11584,11293 11584,11293 11584,11293 11583,11292 11583,11292 11583,11291 11582,11291 11582,11291 11581,11291 L 11569,11291 Z "/>
     <path fill="none" stroke="rgb(255,255,0)" stroke-width="106" stroke-linejoin="round" d="M 11569,11291 L 11569,11291 C 11568,11291 11568,11291 11567,11291 11567,11292 11567,11292 11566,11293 11566,11293 11566,11293 11566,11294 L 11566,12870 11566,12870 C 11566,12871 11566,12871 11566,12872 11567,12872 11567,12872 11567,12873 11568,12873 11568,12873 11569,12873 L 11581,12873 11581,12873 C 11582,12873 11582,12873 11583,12873 11583,12872 11583,12872 11584,12872 11584,12871 11584,12871 11584,12870 L 11584,11294 11584,11294 11584,11294 C 11584,11293 11584,11293 11584,11293 11583,11292 11583,11292 11583,11291 11582,11291 11582,11291 11581,11291 L 11569,11291 Z "/>
    </g>
   </g>
   <g class="com.sun.star.drawing.CustomShape">
    <g id="id9">
     <rect class="BoundingBox" stroke="none" fill="none" x="12780" y="11234" width="159" height="1689"/>
     <path fill="rgb(0,0,0)" stroke="none" d="M 12835,11287 L 12836,11287 C 12835,11287 12835,11287 12834,11287 12834,11288 12834,11288 12833,11288 12833,11289 12833,11289 12833,11290 L 12833,12866 12833,12866 C 12833,12867 12833,12867 12833,12868 12834,12868 12834,12868 12834,12869 12835,12869 12835,12869 12836,12869 L 12847,12869 12847,12869 C 12848,12869 12848,12869 12849,12869 12849,12868 12849,12868 12850,12868 12850,12867 12850,12867 12850,12866 L 12850,11289 12850,11290 12850,11290 C 12850,11289 12850,11289 12850,11288 12849,11288 12849,11288 12849,11287 12848,11287 12848,11287 12847,11287 L 12835,11287 Z "/>
     <path fill="none" stroke="rgb(0,0,0)" stroke-width="106" stroke-linejoin="round" d="M 12835,11287 L 12836,11287 C 12835,11287 12835,11287 12834,11287 12834,11288 12834,11288 12833,11288 12833,11289 12833,11289 12833,11290 L 12833,12866 12833,12866 C 12833,12867 12833,12867 12833,12868 12834,12868 12834,12868 12834,12869 12835,12869 12835,12869 12836,12869 L 12847,12869 12847,12869 C 12848,12869 12848,12869 12849,12869 12849,12868 12849,12868 12850,12868 12850,12867 12850,12867 12850,12866 L 12850,11289 12850,11290 12850,11290 C 12850,11289 12850,11289 12850,11288 12849,11288 12849,11288 12849,11287 12848,11287 12848,11287 12847,11287 L 12835,11287 Z "/>
     <path fill="rgb(192,192,192)" stroke="none" d="M 12870,11287 L 12871,11287 C 12870,11287 12870,11287 12869,11287 12869,11288 12869,11288 12868,11288 12868,11289 12868,11289 12868,11290 L 12868,12866 12868,12866 C 12868,12867 12868,12867 12868,12868 12869,12868 12869,12868 12869,12869 12870,12869 12870,12869 12871,12869 L 12882,12869 12882,12869 C 12883,12869 12883,12869 12884,12869 12884,12868 12884,12868 12885,12868 12885,12867 12885,12867 12885,12866 L 12885,11289 12885,11290 12885,11290 C 12885,11289 12885,11289 12885,11288 12884,11288 12884,11288 12884,11287 12883,11287 12883,11287 12882,11287 L 12870,11287 Z "/>
     <path fill="none" stroke="rgb(255,255,0)" stroke-width="106" stroke-linejoin="round" d="M 12870,11287 L 12871,11287 C 12870,11287 12870,11287 12869,11287 12869,11288 12869,11288 12868,11288 12868,11289 12868,11289 12868,11290 L 12868,12866 12868,12866 C 12868,12867 12868,12867 12868,12868 12869,12868 12869,12868 12869,12869 12870,12869 12870,12869 12871,12869 L 12882,12869 12882,12869 C 12883,12869 12883,12869 12884,12869 12884,12868 12884,12868 12885,12868 12885,12867 12885,12867 12885,12866 L 12885,11289 12885,11290 12885,11290 C 12885,11289 12885,11289 12885,11288 12884,11288 12884,11288 12884,11287 12883,11287 12883,11287 12882,11287 L 12870,11287 Z "/>
    </g>
   </g>
   <g class="com.sun.star.drawing.CustomShape">
    <g id="id10">
     <rect class="BoundingBox" stroke="none" fill="none" x="11484" y="11228" width="250" height="122"/>
     <path fill="rgb(0,0,0)" stroke="none" d="M 11537,11294 L 11537,11294 C 11537,11294 11537,11294 11537,11295 11538,11295 11538,11295 11538,11296 11539,11296 11539,11296 11540,11296 L 11642,11296 11643,11296 C 11643,11296 11643,11296 11644,11296 11644,11295 11644,11295 11645,11295 11645,11294 11645,11294 11645,11294 L 11645,11284 11645,11284 C 11645,11283 11645,11283 11645,11282 11644,11282 11644,11282 11644,11281 11643,11281 11643,11281 11643,11281 L 11539,11281 11540,11281 11540,11281 C 11539,11281 11539,11281 11538,11281 11538,11282 11538,11282 11537,11282 11537,11283 11537,11283 11537,11284 L 11537,11294 Z "/>
     <path fill="none" stroke="rgb(0,0,0)" stroke-width="106" stroke-linejoin="round" d="M 11537,11294 L 11537,11294 C 11537,11294 11537,11294 11537,11295 11538,11295 11538,11295 11538,11296 11539,11296 11539,11296 11540,11296 L 11642,11296 11643,11296 C 11643,11296 11643,11296 11644,11296 11644,11295 11644,11295 11645,11295 11645,11294 11645,11294 11645,11294 L 11645,11284 11645,11284 C 11645,11283 11645,11283 11645,11282 11644,11282 11644,11282 11644,11281 11643,11281 11643,11281 11643,11281 L 11539,11281 11540,11281 11540,11281 C 11539,11281 11539,11281 11538,11281 11538,11282 11538,11282 11537,11282 11537,11283 11537,11283 11537,11284 L 11537,11294 Z "/>
     <path fill="rgb(192,192,192)" stroke="none" d="M 11572,11294 L 11572,11294 C 11572,11294 11572,11294 11572,11295 11573,11295 11573,11295 11573,11296 11574,11296 11574,11296 11575,11296 L 11677,11296 11678,11296 C 11678,11296 11678,11296 11679,11296 11679,11295 11679,11295 11680,11295 11680,11294 11680,11294 11680,11294 L 11680,11284 11680,11284 C 11680,11283 11680,11283 11680,11282 11679,11282 11679,11282 11679,11281 11678,11281 11678,11281 11678,11281 L 11574,11281 11575,11281 11575,11281 C 11574,11281 11574,11281 11573,11281 11573,11282 11573,11282 11572,11282 11572,11283 11572,11283 11572,11284 L 11572,11294 Z "/>
     <path fill="none" stroke="rgb(255,255,0)" stroke-width="106" stroke-linejoin="round" d="M 11572,11294 L 11572,11294 C 11572,11294 11572,11294 11572,11295 11573,11295 11573,11295 11573,11296 11574,11296 11574,11296 11575,11296 L 11677,11296 11678,11296 C 11678,11296 11678,11296 11679,11296 11679,11295 11679,11295 11680,11295 11680,11294 11680,11294 11680,11294 L 11680,11284 11680,11284 C 11680,11283 11680,11283 11680,11282 11679,11282 11679,11282 11679,11281 11678,11281 11678,11281 11678,11281 L 11574,11281 11575,11281 11575,11281 C 11574,11281 11574,11281 11573,11281 11573,11282 11573,11282 11572,11282 11572,11283 11572,11283 11572,11284 L 11572,11294 Z "/>
    </g>
   </g>
   <g class="com.sun.star.drawing.CustomShape">
    <g id="id11">
     <rect class="BoundingBox" stroke="none" fill="none" x="12697" y="11228" width="243" height="122"/>
     <path fill="rgb(0,0,0)" stroke="none" d="M 12750,11294 L 12750,11294 C 12750,11294 12750,11294 12750,11295 12751,11295 12751,11295 12751,11296 12752,11296 12752,11296 12753,11296 L 12848,11296 12849,11296 C 12849,11296 12849,11296 12850,11296 12850,11295 12850,11295 12851,11295 12851,11294 12851,11294 12851,11294 L 12851,11284 12851,11284 C 12851,11283 12851,11283 12851,11282 12850,11282 12850,11282 12850,11281 12849,11281 12849,11281 12849,11281 L 12752,11281 12753,11281 12753,11281 C 12752,11281 12752,11281 12751,11281 12751,11282 12751,11282 12750,11282 12750,11283 12750,11283 12750,11284 L 12750,11294 Z "/>
     <path fill="none" stroke="rgb(0,0,0)" stroke-width="106" stroke-linejoin="round" d="M 12750,11294 L 12750,11294 C 12750,11294 12750,11294 12750,11295 12751,11295 12751,11295 12751,11296 12752,11296 12752,11296 12753,11296 L 12848,11296 12849,11296 C 12849,11296 12849,11296 12850,11296 12850,11295 12850,11295 12851,11295 12851,11294 12851,11294 12851,11294 L 12851,11284 12851,11284 C 12851,11283 12851,11283 12851,11282 12850,11282 12850,11282 12850,11281 12849,11281 12849,11281 12849,11281 L 12752,11281 12753,11281 12753,11281 C 12752,11281 12752,11281 12751,11281 12751,11282 12751,11282 12750,11282 12750,11283 12750,11283 12750,11284 L 12750,11294 Z "/>
     <path fill="rgb(192,192,192)" stroke="none" d="M 12785,11294 L 12785,11294 C 12785,11294 12785,11294 12785,11295 12786,11295 12786,11295 12786,11296 12787,11296 12787,11296 12788,11296 L 12883,11296 12884,11296 C 12884,11296 12884,11296 12885,11296 12885,11295 12885,11295 12886,11295 12886,11294 12886,11294 12886,11294 L 12886,11284 12886,11284 C 12886,11283 12886,11283 12886,11282 12885,11282 12885,11282 12885,11281 12884,11281 12884,11281 12884,11281 L 12787,11281 12788,11281 12788,11281 C 12787,11281 12787,11281 12786,11281 12786,11282 12786,11282 12785,11282 12785,11283 12785,11283 12785,11284 L 12785,11294 Z "/>
     <path fill="none" stroke="rgb(255,255,0)" stroke-width="106" stroke-linejoin="round" d="M 12785,11294 L 12785,11294 C 12785,11294 12785,11294 12785,11295 12786,11295 12786,11295 12786,11296 12787,11296 12787,11296 12788,11296 L 12883,11296 12884,11296 C 12884,11296 12884,11296 12885,11296 12885,11295 12885,11295 12886,11295 12886,11294 12886,11294 12886,11294 L 12886,11284 12886,11284 C 12886,11283 12886,11283 12886,11282 12885,11282 12885,11282 12885,11281 12884,11281 12884,11281 12884,11281 L 12787,11281 12788,11281 12788,11281 C 12787,11281 12787,11281 12786,11281 12786,11282 12786,11282 12785,11282 12785,11283 12785,11283 12785,11284 L 12785,11294 Z "/>
    </g>
   </g>
  </g>
 </g>
</svg>