<?xml version="1.0" encoding="UTF-8"?>
<!DOCTYPE svg PUBLIC "-//W3C//DTD SVG 1.1//EN" "http://www.w3.org/Graphics/SVG/1.1/DTD/svg11.dtd">
<svg version="1.2" width="12.63mm" height="23.94mm" viewBox="23718 12554 1263 2394" preserveAspectRatio="xMidYMid" fill-rule="evenodd" stroke-width="28.222" stroke-linejoin="round" xmlns="http://www.w3.org/2000/svg" xmlns:ooo="http://xml.openoffice.org/svg/export" xmlns:xlink="http://www.w3.org/1999/xlink" xmlns:presentation="http://sun.com/xmlns/staroffice/presentation" xmlns:smil="http://www.w3.org/2001/SMIL20/" xmlns:anim="urn:oasis:names:tc:opendocument:xmlns:animation:1.0" xmlns:svg="urn:oasis:names:tc:opendocument:xmlns:svg-compatible:1.0" xml:space="preserve">
 <defs class="EmbeddedBulletChars">
  <g id="bullet-char-template-57356" transform="scale(0.00048828125,-0.00048828125)">
   <path d="M 580,1141 L 1163,571 580,0 -4,571 580,1141 Z"/>
  </g>
  <g id="bullet-char-template-57354" transform="scale(0.00048828125,-0.00048828125)">
   <path d="M 8,1128 L 1137,1128 1137,0 8,0 8,1128 Z"/>
  </g>
  <g id="bullet-char-template-10146" transform="scale(0.00048828125,-0.00048828125)">
   <path d="M 174,0 L 602,739 174,1481 1456,739 174,0 Z M 1358,739 L 309,1346 659,739 1358,739 Z"/>
  </g>
  <g id="bullet-char-template-10132" transform="scale(0.00048828125,-0.00048828125)">
   <path d="M 2015,739 L 1276,0 717,0 1260,543 174,543 174,936 1260,936 717,1481 1274,1481 2015,739 Z"/>
  </g>
  <g id="bullet-char-template-10007" transform="scale(0.00048828125,-0.00048828125)">
   <path d="M 0,-2 C -7,14 -16,27 -25,37 L 356,567 C 262,823 215,952 215,954 215,979 228,992 255,992 264,992 276,990 289,987 310,991 331,999 354,1012 L 381,999 492,748 772,1049 836,1024 860,1049 C 881,1039 901,1025 922,1006 886,937 835,863 770,784 769,783 710,716 594,584 L 774,223 C 774,196 753,168 711,139 L 727,119 C 717,90 699,76 672,76 641,76 570,178 457,381 L 164,-76 C 142,-110 111,-127 72,-127 30,-127 9,-110 8,-76 1,-67 -2,-52 -2,-32 -2,-23 -1,-13 0,-2 Z"/>
  </g>
  <g id="bullet-char-template-10004" transform="scale(0.00048828125,-0.00048828125)">
   <path d="M 285,-33 C 182,-33 111,30 74,156 52,228 41,333 41,471 41,549 55,616 82,672 116,743 169,778 240,778 293,778 328,747 346,684 L 369,508 C 377,444 397,411 428,410 L 1163,1116 C 1174,1127 1196,1133 1229,1133 1271,1133 1292,1118 1292,1087 L 1292,965 C 1292,929 1282,901 1262,881 L 442,47 C 390,-6 338,-33 285,-33 Z"/>
  </g>
  <g id="bullet-char-template-9679" transform="scale(0.00048828125,-0.00048828125)">
   <path d="M 813,0 C 632,0 489,54 383,161 276,268 223,411 223,592 223,773 276,916 383,1023 489,1130 632,1184 813,1184 992,1184 1136,1130 1245,1023 1353,916 1407,772 1407,592 1407,412 1353,268 1245,161 1136,54 992,0 813,0 Z"/>
  </g>
  <g id="bullet-char-template-8226" transform="scale(0.00048828125,-0.00048828125)">
   <path d="M 346,457 C 273,457 209,483 155,535 101,586 74,649 74,723 74,796 101,859 155,911 209,963 273,989 346,989 419,989 480,963 531,910 582,859 608,796 608,723 608,648 583,586 532,535 482,483 420,457 346,457 Z"/>
  </g>
  <g id="bullet-char-template-8211" transform="scale(0.00048828125,-0.00048828125)">
   <path d="M -4,459 L 1135,459 1135,606 -4,606 -4,459 Z"/>
  </g>
  <g id="bullet-char-template-61548" transform="scale(0.00048828125,-0.00048828125)">
   <path d="M 173,740 C 173,903 231,1043 346,1159 462,1274 601,1332 765,1332 928,1332 1067,1274 1183,1159 1299,1043 1357,903 1357,740 1357,577 1299,437 1183,322 1067,206 928,148 765,148 601,148 462,206 346,322 231,437 173,577 173,740 Z"/>
  </g>
 </defs>
 <g class="Page">
  <g class="com.sun.star.drawing.CustomShape">
   <g id="id3">
    <rect class="BoundingBox" stroke="none" fill="none" x="24384" y="12748" width="597" height="2200"/>
    <path fill="none" stroke="rgb(0,0,0)" stroke-width="106" stroke-linejoin="round" d="M 24440,12806 L 24441,12805 C 24440,12806 24440,12806 24439,12806 24439,12807 24438,12808 24438,12808 24438,12809 24438,12810 24438,12810 L 24869,14890 24869,14890 C 24869,14891 24869,14892 24870,14892 24870,14893 24871,14893 24871,14893 24872,14893 24873,14893 24873,14893 L 24888,14889 24888,14889 C 24889,14889 24889,14889 24890,14888 24890,14888 24891,14887 24891,14887 24891,14886 24891,14885 24891,14885 L 24460,12804 24460,12804 24460,12804 C 24460,12804 24460,12803 24459,12803 24459,12802 24458,12802 24458,12802 24457,12801 24456,12801 24456,12802 L 24440,12806 Z "/>
    <path fill="none" stroke="rgb(255,255,0)" stroke-width="106" stroke-linejoin="round" d="M 24475,12806 L 24476,12805 C 24475,12806 24475,12806 24474,12806 24474,12807 24473,12808 24473,12808 24473,12809 24473,12810 24473,12810 L 24904,14890 24904,14890 C 24904,14891 24904,14892 24905,14892 24905,14893 24906,14893 24906,14893 24907,14893 24908,14893 24908,14893 L 24923,14889 24923,14889 C 24924,14889 24924,14889 24925,14888 24925,14888 24926,14887 24926,14887 24926,14886 24926,14885 24926,14885 L 24495,12804 24495,12804 24495,12804 C 24495,12804 24495,12803 24494,12803 24494,12802 24493,12802 24493,12802 24492,12801 24491,12801 24491,12802 L 24475,12806 Z "/>
   </g>
  </g>
  <g class="com.sun.star.drawing.CustomShape">
   <g id="id4">
    <rect class="BoundingBox" stroke="none" fill="none" x="23718" y="12758" width="651" height="2154"/>
    <path fill="none" stroke="rgb(0,0,0)" stroke-width="106" stroke-linejoin="round" d="M 23780,14857 L 23780,14857 C 23778,14856 23776,14855 23775,14854 23773,14852 23772,14850 23772,14848 23771,14846 23771,14844 23772,14842 L 24256,12821 24256,12821 C 24256,12819 24257,12817 24259,12815 24260,12814 24262,12813 24264,12812 24266,12812 24268,12812 24270,12812 L 24270,12812 24270,12812 C 24272,12813 24274,12814 24275,12816 24277,12817 24278,12819 24279,12821 24279,12823 24279,12825 24279,12827 L 23795,14848 23795,14848 23795,14848 C 23794,14850 23793,14852 23792,14854 23790,14855 23788,14856 23786,14857 23784,14857 23782,14857 23780,14857 Z "/>
    <path fill="none" stroke="rgb(255,255,0)" stroke-width="106" stroke-linejoin="round" d="M 23815,14857 L 23815,14857 C 23813,14856 23811,14855 23810,14854 23808,14852 23807,14850 23807,14848 23806,14846 23806,14844 23807,14842 L 24291,12821 24291,12821 C 24291,12819 24292,12817 24294,12815 24295,12814 24297,12813 24299,12812 24301,12812 24303,12812 24305,12812 L 24305,12812 24305,12812 C 24307,12813 24309,12814 24310,12816 24312,12817 24313,12819 24314,12821 24314,12823 24314,12825 24314,12827 L 23830,14848 23830,14848 23830,14848 C 23829,14850 23828,14852 23827,14854 23825,14855 23823,14856 23821,14857 23819,14857 23817,14857 23815,14857 Z "/>
   </g>
  </g>
  <g class="com.sun.star.drawing.CustomShape">
   <g id="id5">
    <rect class="BoundingBox" stroke="none" fill="none" x="23959" y="12554" width="832" height="831"/>
    <path fill="rgb(220,220,220)" stroke="none" d="M 24772,12969 C 24772,13039 24754,13107 24719,13167 24684,13228 24634,13278 24573,13313 24513,13348 24444,13366 24375,13366 24305,13366 24236,13348 24176,13313 24115,13278 24065,13228 24030,13167 23995,13107 23977,13039 23977,12969 23977,12899 23995,12831 24030,12770 24065,12710 24115,12660 24176,12625 24236,12590 24305,12572 24375,12572 24444,12572 24513,12590 24573,12625 24634,12660 24684,12710 24719,12770 24754,12831 24772,12899 24772,12969 L 24772,12969 Z "/>
    <path fill="none" stroke="rgb(243,2,84)" stroke-width="35" stroke-linejoin="round" d="M 24772,12969 C 24772,13039 24754,13107 24719,13167 24684,13228 24634,13278 24573,13313 24513,13348 24444,13366 24375,13366 24305,13366 24236,13348 24176,13313 24115,13278 24065,13228 24030,13167 23995,13107 23977,13039 23977,12969 23977,12899 23995,12831 24030,12770 24065,12710 24115,12660 24176,12625 24236,12590 24305,12572 24375,12572 24444,12572 24513,12590 24573,12625 24634,12660 24684,12710 24719,12770 24754,12831 24772,12899 24772,12969 Z "/>
   </g>
  </g>
  <g class="com.sun.star.drawing.PolyLineShape">
   <g id="id6">
    <rect class="BoundingBox" stroke="none" fill="none" x="24115" y="12578" width="519" height="769"/>
    <path fill="none" stroke="rgb(0,0,0)" stroke-width="21" stroke-linejoin="round" d="M 24622,12665 L 24622,12732 24202,12732 24202,12799 24622,12799 24622,12866 24202,12866 24202,12932 24622,12932 24622,13000 24202,13000 24202,13067 24622,13067 24622,13134 24202,13134 24202,13201 24622,13201 24622,13267 24202,13267 24202,13335 "/>
    <path fill="none" stroke="rgb(0,0,0)" stroke-width="21" stroke-linejoin="round" d="M 24546,12589 L 24546,12656 24126,12656 24126,12723 24546,12723 24546,12790 24126,12790 24126,12856 24546,12856 24546,12924 24126,12924 24126,12991 24546,12991 24546,13058 24126,13058 24126,13125 24546,13125 24546,13191 24126,13191 24126,13259 "/>
   </g>
  </g>
 </g>
</svg>